<svg width="865" height="865" viewBox="0 0 865 865" fill="none" xmlns="http://www.w3.org/2000/svg">
<path d="M249.11 242.346C253.822 236.662 260.504 232.964 267.822 231.989L284.005 229.833C289.721 229.072 295.521 230.388 300.349 233.542V233.542C303.724 235.747 306.492 238.766 308.397 242.319L309.166 243.754C311.537 248.178 312.779 253.119 312.779 258.138V260.199L314.099 300.21C314.19 302.978 314.177 305.736 314.101 308.505C313.838 318.094 313.493 341.299 316.178 345.132C319.578 349.985 382.118 346.769 391.459 345.132C397.807 344.019 400.126 342.755 401.206 339.828C403.369 333.971 402.485 327.437 402.197 321.2L401.172 299.025L399.23 270.876L397.773 236.903V222.829L401.172 184.002L404.01 164.556C404.378 162.04 405.443 159.678 407.086 157.738V157.738C408.925 155.566 411.4 154.026 414.162 153.336L419.756 151.939C422.252 151.315 424.814 151 427.387 151H430.272C432.882 151 435.484 151.289 438.03 151.863L450.591 154.691C460.906 157.014 467.847 166.693 466.739 177.208V177.208L464.397 226.84C464.339 228.048 464.302 229.236 464.289 230.446C464.181 241.032 463.868 295.649 468.682 317.953C474.025 342.705 480.096 338.822 491.509 340.278C495.016 340.726 498.935 340.532 502.682 340.048C513.507 338.651 524.247 336.191 535.154 335.789L676.553 330.572L812.058 320.38L825.658 317.953V317.953C836.768 316.684 848.959 317.265 857.391 324.61C863.681 330.089 864.861 336.791 864.998 351.441C865.483 403.371 788.286 399.144 737.749 397.062L611.958 399.003H533.278C506.549 400.082 507.947 393.169 485.438 408.71C472.082 417.931 475.214 441.519 478.396 458.82L480.096 488.546L483.495 547.999V571.78L484.467 600.9L485.438 630.02V664.478L487.866 714.952V741.919C487.866 744.912 487.025 747.844 485.438 750.381V750.381L481.75 755.705C481.295 756.361 480.783 756.974 480.219 757.538V757.538C477.947 759.808 474.931 761.179 471.727 761.398L450.914 762.82C449.169 762.939 447.417 762.808 445.71 762.428V762.428C441.714 761.541 438.131 759.337 435.538 756.17L432.821 752.851C431.482 751.216 430.42 749.372 429.677 747.393V747.393C428.502 744.262 428.159 740.88 428.681 737.577L429.342 733.395L430.799 712.04L427.885 666.419L419.628 551.882L408.642 420.142C408.521 418.689 408.059 417.284 407.294 416.042V416.042C405.603 413.295 402.607 411.622 399.381 411.622H389.516L327.831 413.49C326.232 413.538 324.66 413.916 323.214 414.601V414.601C318.957 416.616 316.337 420.978 316.573 425.681C317.37 441.55 319.092 477.221 319.092 488.789C319.092 498.017 317.265 503.958 315.853 507.173C314.954 509.217 313.198 510.662 311.201 511.66V511.66C309.359 512.58 307.345 513.105 305.288 513.202L280.862 514.346C278.508 514.456 276.15 514.344 273.818 514.011L269.436 513.386C267.907 513.167 266.43 512.677 265.074 511.938V511.938C262.924 510.766 261.15 509.007 259.96 506.866L259.054 505.237C257.652 502.716 256.832 499.914 256.652 497.035L254.982 470.347C253.306 455.266 253.456 439.655 251.097 424.726C249.921 417.283 225.334 417.428 215.891 417.761C213.452 417.847 211.021 417.931 208.58 417.931H183.102L75.7662 421.814L53.9106 424.726H35.5669C31.6292 424.726 27.7141 424.131 23.954 422.962L18.8784 421.384C11.7916 419.181 5.93286 414.143 2.69324 407.466V407.466C0.920842 403.813 0 399.806 0 395.745V363.341C0 359.023 0.97937 354.761 2.86441 350.876L3.52887 349.507C6.2551 343.888 11.0094 339.511 16.8341 337.258V337.258C20.7639 335.738 25.0174 335.249 29.1896 335.837L64.1099 340.764L114.383 345.029C115.189 345.097 115.953 345.155 116.76 345.203C126.49 345.786 194.342 349.632 220.013 345.132C236.824 342.185 241.457 330.29 242.502 321.401C243.302 314.608 242.355 307.718 242.355 300.879V261.075C242.355 254.236 244.744 247.611 249.11 242.346V242.346Z" fill="#EEEEEE"/>
</svg>
